<?xml version="1.0" encoding="UTF-8"?>
<svg width="24" height="24" viewBox="0 0 24 24" fill="none" xmlns="http://www.w3.org/2000/svg">
  <path d="M17.5 7C19.9853 7 22 9.01472 22 11.5V13.5C22 15.9853 19.9853 18 17.5 18H6.5C4.01472 18 2 15.9853 2 13.5V11.5C2 9.01472 4.01472 7 6.5 7H17.5ZM10 9H7V11H5V14H7V16H10V14H12V11H10V9ZM16 11C15.4477 11 15 11.4477 15 12C15 12.5523 15.4477 13 16 13C16.5523 13 17 12.5523 17 12C17 11.4477 16.5523 11 16 11ZM18 9C17.4477 9 17 9.44772 17 10C17 10.5523 17.4477 11 18 11C18.5523 11 19 10.5523 19 10C19 9.44772 18.5523 9 18 9Z" fill="currentColor"/>
</svg> 