<?xml version="1.0" encoding="UTF-8"?>
<svg width="400" height="400" viewBox="0 0 400 400" xmlns="http://www.w3.org/2000/svg">
  <defs>
    <!-- Wood grain pattern -->
    <pattern id="grain" x="0" y="0" width="100" height="100" patternUnits="userSpaceOnUse">
      <rect width="100" height="100" fill="#8b4513"/>
      <path d="M0 0c20 25 20 75 0 100" stroke="#a45117" stroke-width="30" stroke-opacity="0.1" fill="none"/>
      <path d="M50 0c-20 25-20 75 0 100" stroke="#723a0f" stroke-width="40" stroke-opacity="0.1" fill="none"/>
      <path d="M100 0c-20 25-20 75 0 100" stroke="#a45117" stroke-width="25" stroke-opacity="0.1" fill="none"/>
    </pattern>
    
    <!-- Corner decoration -->
    <g id="corner">
      <path d="M0,0 L40,0 A40,40 0 0,1 0,40 Z" fill="#b58d3c"/>
      <path d="M5,5 L35,5 A30,30 0 0,1 5,35 Z" fill="#deb25c"/>
      <circle cx="20" cy="20" r="8" fill="#b58d3c"/>
      <circle cx="20" cy="20" r="5" fill="#deb25c"/>
    </g>
  </defs>

  <!-- Main border -->
  <rect width="400" height="400" fill="url(#grain)"/>
  
  <!-- Inner shadow -->
  <rect x="40" y="40" width="320" height="320" fill="none" 
        stroke="#000000" stroke-width="2" stroke-opacity="0.2"/>
  
  <!-- Corner decorations -->
  <use href="#corner" x="0" y="0"/>
  <use href="#corner" transform="rotate(90 400 0)" x="400" y="0"/>
  <use href="#corner" transform="rotate(180 400 400)" x="400" y="400"/>
  <use href="#corner" transform="rotate(270 0 400)" x="0" y="400"/>
  
  <!-- Highlight overlay -->
  <rect width="400" height="400" fill="white" opacity="0.1"/>
</svg> 